# xmcd CD database file generated by Grip 2.94
# 
# Track frame offsets:
#       150
#       31197
#       50892
#       68805
#       90652
#       113975
#       135150
#       160900
#       183542
#       200380
#       219955
#       233810
#       254027
# 
# Disc length: 3766 seconds
# 
# Revision: 3
# Processed by: cddbd v1.4PL0 Copyright (c) Steve Scherf et al.
# Submitted via: Grip 2.94
# 
DISCID=b60eb40d
DTITLE=Various Blue Chicgo Artists - Clark Street Ramblers
DYEAR=1900
DGENRE=
TTITLE0=Johnny B. Moore - Kokomo Me Baby
TTITLE1=George Baze - Park My Car
TTITLE2=Eddy Clearwater - Sun Is Shining
TTITLE3=Maurice John Vaughn - Turn Up The Heat
TTITLE4=Michael Coleman - I Been Foolin' Around
TTITLE5=Willie Kent - I Wonder Why
TTITLE6=Aron Burton - Nothing
TTITLE7=Eddie Shaw - I'm Tired
TTITLE8=Johnny B. Moore - Don't Lie To Me
TTITLE9=George Baze - Hush Hush
TTITLE10=Maurice John Vaughn - It's My Fault
TTITLE11=Michael Coleman - You're Going To Miss Me
TTITLE12=Willie Kent - All Night Long
EXTD=
EXTT0=
EXTT1=
EXTT2=
EXTT3=
EXTT4=
EXTT5=
EXTT6=
EXTT7=
EXTT8=
EXTT9=
EXTT10=
EXTT11=
EXTT12=
PLAYORDER=
